HIERARCHY
ROOT Root
{
  OFFSET 0.0 0.0 0.0
  CHANNELS 6 Xposition Yposition Zposition Zrotation Yrotation Xrotation
  JOINT Hips
  {
    OFFSET 0.0 100.0 0.0
    CHANNELS 6 Xposition Yposition Zposition Zrotation Yrotation Xrotation
    JOINT Spine1
    {
      OFFSET 5.003913 -0.037094 -0.013727
      CHANNELS 3 Zrotation Yrotation Xrotation
      JOINT Spine2
      {
        OFFSET 7.125363 -1e-06 0.0
        CHANNELS 3 Zrotation Yrotation Xrotation
        JOINT Chest
        {
          OFFSET 7.594027 1e-06 0.0
          CHANNELS 3 Zrotation Yrotation Xrotation
          JOINT Neck1
          {
            OFFSET 26.313086 -0.460272 -0.181672
            CHANNELS 3 Zrotation Yrotation Xrotation
            JOINT Neck2
            {
              OFFSET 8.045911 0.0 0.0
              CHANNELS 3 Zrotation Yrotation Xrotation
              JOINT Head
              {
                OFFSET 6.432774 0.0 0.0
                CHANNELS 3 Zrotation Yrotation Xrotation
                JOINT HeadEnd
                {
                  OFFSET 16.169773 0.06451 0.00362
                  CHANNELS 3 Zrotation Yrotation Xrotation
                }
                JOINT Jaw
                {
                  OFFSET 0.108741 3.12938 0.002639
                  CHANNELS 3 Zrotation Yrotation Xrotation
                }
                JOINT LeftEye
                {
                  OFFSET 4.45173 8.166359 3.206392
                  CHANNELS 3 Zrotation Yrotation Xrotation
                }
                JOINT RightEye
                {
                  OFFSET 4.436895 8.135758 -3.222429
                  CHANNELS 3 Zrotation Yrotation Xrotation
                }
              }
            }
          }
          JOINT LeftShoulder
          {
            OFFSET 23.218927 5.195579 1.621656
            CHANNELS 3 Zrotation Yrotation Xrotation
            JOINT LeftArm
            {
              OFFSET 15.902118 2e-06 -2e-06
              CHANNELS 3 Zrotation Yrotation Xrotation
              JOINT LeftForeArm
              {
                OFFSET 28.739307 0.0 -1e-06
                CHANNELS 3 Zrotation Yrotation Xrotation
                JOINT LeftHand
                {
                  OFFSET 27.093981 -4e-06 0.0
                  CHANNELS 3 Zrotation Yrotation Xrotation
                  JOINT LeftHandThumb1
                  {
                    OFFSET 2.276781 3.380274 0.83384
                    CHANNELS 3 Zrotation Yrotation Xrotation
                    JOINT LeftHandThumb2
                    {
                      OFFSET 4.705309 -1e-06 -1e-06
                      CHANNELS 3 Zrotation Yrotation Xrotation
                      JOINT LeftHandThumb3
                      {
                        OFFSET 2.798515 0.0 3e-06
                        CHANNELS 3 Zrotation Yrotation Xrotation
                        JOINT LeftHandThumbEnd
                        {
                          OFFSET 3.180793 4e-06 -4e-06
                          CHANNELS 3 Zrotation Yrotation Xrotation
                        }
                      }
                    }
                  }
                  JOINT LeftHandIndex1
                  {
                    OFFSET 3.247786 2.352677 0.137192
                    CHANNELS 3 Zrotation Yrotation Xrotation
                    JOINT LeftHandIndex2
                    {
                      OFFSET 6.367095 1e-06 0.0
                      CHANNELS 3 Zrotation Yrotation Xrotation
                      JOINT LeftHandIndex3
                      {
                        OFFSET 3.662364 0.0 0.0
                        CHANNELS 3 Zrotation Yrotation Xrotation
                        JOINT LeftHandIndex4
                        {
                          OFFSET 2.329242 4e-06 -4e-06
                          CHANNELS 3 Zrotation Yrotation Xrotation
                          JOINT LeftHandIndexEnd
                          {
                            OFFSET 2.767823 1e-06 0.0
                            CHANNELS 3 Zrotation Yrotation Xrotation
                          }
                        }
                      }
                    }
                  }
                  JOINT LeftHandMiddle1
                  {
                    OFFSET 3.163612 0.945023 -0.406112
                    CHANNELS 3 Zrotation Yrotation Xrotation
                    JOINT LeftHandMiddle2
                    {
                      OFFSET 6.276789 3e-06 0.0
                      CHANNELS 3 Zrotation Yrotation Xrotation
                      JOINT LeftHandMiddle3
                      {
                        OFFSET 4.35652 -1e-06 4e-06
                        CHANNELS 3 Zrotation Yrotation Xrotation
                        JOINT LeftHandMiddle4
                        {
                          OFFSET 2.996877 0.0 8e-06
                          CHANNELS 3 Zrotation Yrotation Xrotation
                          JOINT LeftHandMiddleEnd
                          {
                            OFFSET 2.323256 3e-06 -4e-06
                            CHANNELS 3 Zrotation Yrotation Xrotation
                          }
                        }
                      }
                    }
                  }
                  JOINT LeftHandRing1
                  {
                    OFFSET 2.882606 -0.309162 0.107445
                    CHANNELS 3 Zrotation Yrotation Xrotation
                    JOINT LeftHandRing2
                    {
                      OFFSET 6.033198 0.0 4e-06
                      CHANNELS 3 Zrotation Yrotation Xrotation
                      JOINT LeftHandRing3
                      {
                        OFFSET 4.350578 3e-06 0.0
                        CHANNELS 3 Zrotation Yrotation Xrotation
                        JOINT LeftHandRing4
                        {
                          OFFSET 2.651321 2e-06 -7e-06
                          CHANNELS 3 Zrotation Yrotation Xrotation
                          JOINT LeftHandRingEnd
                          {
                            OFFSET 1.937663 1e-06 -4e-06
                            CHANNELS 3 Zrotation Yrotation Xrotation
                          }
                        }
                      }
                    }
                  }
                  JOINT LeftHandPinky1
                  {
                    OFFSET 2.865315 -1.525436 0.575687
                    CHANNELS 3 Zrotation Yrotation Xrotation
                    JOINT LeftHandPinky2
                    {
                      OFFSET 5.54936 1e-06 -8e-06
                      CHANNELS 3 Zrotation Yrotation Xrotation
                      JOINT LeftHandPinky3
                      {
                        OFFSET 3.070974 0.0 -4e-06
                        CHANNELS 3 Zrotation Yrotation Xrotation
                        JOINT LeftHandPinky4
                        {
                          OFFSET 1.549672 1e-06 0.0
                          CHANNELS 3 Zrotation Yrotation Xrotation
                          JOINT LeftHandPinkyEnd
                          {
                            OFFSET 1.952123 0.0 0.0
                            CHANNELS 3 Zrotation Yrotation Xrotation
                          }
                        }
                      }
                    }
                  }
                }
              }
            }
          }
          JOINT RightShoulder
          {
            OFFSET 23.161716 5.296122 -1.380114
            CHANNELS 3 Zrotation Yrotation Xrotation
            JOINT RightArm
            {
              OFFSET -16.027195 -2e-06 1.1e-05
              CHANNELS 3 Zrotation Yrotation Xrotation
              JOINT RightForeArm
              {
                OFFSET -28.736639 4e-06 2e-06
                CHANNELS 3 Zrotation Yrotation Xrotation
                JOINT RightHand
                {
                  OFFSET -27.133619 6e-06 0.0
                  CHANNELS 3 Zrotation Yrotation Xrotation
                  JOINT RightHandThumb1
                  {
                    OFFSET -2.274328 -3.351035 -0.83067
                    CHANNELS 3 Zrotation Yrotation Xrotation
                    JOINT RightHandThumb2
                    {
                      OFFSET -4.703594 -3e-06 2e-06
                      CHANNELS 3 Zrotation Yrotation Xrotation
                      JOINT RightHandThumb3
                      {
                        OFFSET -2.794935 -4e-06 -3e-06
                        CHANNELS 3 Zrotation Yrotation Xrotation
                        JOINT RightHandThumbEnd
                        {
                          OFFSET -3.183852 4e-06 1e-06
                          CHANNELS 3 Zrotation Yrotation Xrotation
                        }
                      }
                    }
                  }
                  JOINT RightHandIndex1
                  {
                    OFFSET -3.253496 -2.33755 -0.127667
                    CHANNELS 3 Zrotation Yrotation Xrotation
                    JOINT RightHandIndex2
                    {
                      OFFSET -6.344434 0.0 0.0
                      CHANNELS 3 Zrotation Yrotation Xrotation
                      JOINT RightHandIndex3
                      {
                        OFFSET -3.654871 0.0 -8e-06
                        CHANNELS 3 Zrotation Yrotation Xrotation
                        JOINT RightHandIndex4
                        {
                          OFFSET -2.327586 -1e-06 0.0
                          CHANNELS 3 Zrotation Yrotation Xrotation
                          JOINT RightHandIndexEnd
                          {
                            OFFSET -2.770001 3e-06 8e-06
                            CHANNELS 3 Zrotation Yrotation Xrotation
                          }
                        }
                      }
                    }
                  }
                  JOINT RightHandMiddle1
                  {
                    OFFSET -3.168223 -0.944764 0.411762
                    CHANNELS 3 Zrotation Yrotation Xrotation
                    JOINT RightHandMiddle2
                    {
                      OFFSET -6.266691 -1e-06 -4e-06
                      CHANNELS 3 Zrotation Yrotation Xrotation
                      JOINT RightHandMiddle3
                      {
                        OFFSET -4.348901 0.0 0.0
                        CHANNELS 3 Zrotation Yrotation Xrotation
                        JOINT RightHandMiddle4
                        {
                          OFFSET -3.00024 2e-06 -4e-06
                          CHANNELS 3 Zrotation Yrotation Xrotation
                          JOINT RightHandMiddleEnd
                          {
                            OFFSET -2.321477 -4e-06 -4e-06
                            CHANNELS 3 Zrotation Yrotation Xrotation
                          }
                        }
                      }
                    }
                  }
                  JOINT RightHandRing1
                  {
                    OFFSET -2.885654 0.293261 -0.119232
                    CHANNELS 3 Zrotation Yrotation Xrotation
                    JOINT RightHandRing2
                    {
                      OFFSET -6.032835 -1e-06 -4e-06
                      CHANNELS 3 Zrotation Yrotation Xrotation
                      JOINT RightHandRing3
                      {
                        OFFSET -4.33881 0.0 -4e-06
                        CHANNELS 3 Zrotation Yrotation Xrotation
                        JOINT RightHandRing4
                        {
                          OFFSET -2.654903 -4e-06 -4e-06
                          CHANNELS 3 Zrotation Yrotation Xrotation
                          JOINT RightHandRingEnd
                          {
                            OFFSET -1.935122 0.0 4e-06
                            CHANNELS 3 Zrotation Yrotation Xrotation
                          }
                        }
                      }
                    }
                  }
                  JOINT RightHandPinky1
                  {
                    OFFSET -2.866241 1.503904 -0.60527
                    CHANNELS 3 Zrotation Yrotation Xrotation
                    JOINT RightHandPinky2
                    {
                      OFFSET -5.553177 -2e-06 0.0
                      CHANNELS 3 Zrotation Yrotation Xrotation
                      JOINT RightHandPinky3
                      {
                        OFFSET -3.062664 -1e-06 -4e-06
                        CHANNELS 3 Zrotation Yrotation Xrotation
                        JOINT RightHandPinky4
                        {
                          OFFSET -1.546529 2e-06 4e-06
                          CHANNELS 3 Zrotation Yrotation Xrotation
                          JOINT RightHandPinkyEnd
                          {
                            OFFSET -1.952341 0.0 -4e-06
                            CHANNELS 3 Zrotation Yrotation Xrotation
                          }
                        }
                      }
                    }
                  }
                }
              }
            }
          }
        }
      }
    }
    JOINT LeftLeg
    {
      OFFSET -8.443107 2.567604 10.043214
      CHANNELS 3 Zrotation Yrotation Xrotation
      JOINT LeftShin
      {
        OFFSET 43.229198 1e-06 -1e-06
        CHANNELS 3 Zrotation Yrotation Xrotation
        JOINT LeftFoot
        {
          OFFSET 42.298611 1e-06 1e-06
          CHANNELS 3 Zrotation Yrotation Xrotation
          JOINT LeftToeBase
          {
            OFFSET 14.165858 1e-06 0.0
            CHANNELS 3 Zrotation Yrotation Xrotation
            JOINT LeftToeEnd
            {
              OFFSET 6.7141 -0.234461 0.0
              CHANNELS 3 Zrotation Yrotation Xrotation
            }
          }
        }
      }
    }
    JOINT RightLeg
    {
      OFFSET -8.303923 2.592729 -10.047278
      CHANNELS 3 Zrotation Yrotation Xrotation
      JOINT RightShin
      {
        OFFSET -43.369682 0.0 1e-06
        CHANNELS 3 Zrotation Yrotation Xrotation
        JOINT RightFoot
        {
          OFFSET -42.260784 4e-06 2e-06
          CHANNELS 3 Zrotation Yrotation Xrotation
          JOINT RightToeBase
          {
            OFFSET -14.222245 -2e-06 -1e-06
            CHANNELS 3 Zrotation Yrotation Xrotation
            JOINT RightToeEnd
            {
              OFFSET -6.660062 0.232574 -2e-06
              CHANNELS 3 Zrotation Yrotation Xrotation
            }
          }
        }
      }
    }
  }
}
MOTION
Frames: 4
Frame Time: 0.03333333333333333
0.0 0.0 0.0 0.0 -0.0 0.0 -0.626487 28.595209 -1.891985 86.326828 -63.37191 88.687805 20.722708 -1.734783 0.699986 -0.537427 -1.378538 1.964707 17.810816 -0.936478 0.118494 19.313166 1.982707 1.921836 -3.025509 -0.111157 -0.148191 -40.280647 8.01406 -2.266063 6e-06 -0.0 -0.0 -0.170469 -0.239832 0.045215 -0.209114 -0.182552 0.07413 -0.324479 -0.306645 0.016605 -35.671341 -60.846725 33.362164 31.434225 13.411127 -75.832489 77.819084 -0.561816 0.430647 -13.496483 17.550283 11.925614 17.636625 -26.322725 52.411182 -19.46665 -14.395592 29.410378 -2e-06 -8.774818 -2e-06 17.969011 -18.061073 6.191184 -0.609776 -1.795652 -3.889327 -4.807086 -11.046809 -2.937849 4e-06 -20.976009 2e-06 -5.019969 -25.033546 -4.031878 6e-06 -1e-06 0.0 -10.634531 -5.686969 -3.565586 10.57327 -17.922945 -3.113899 1e-06 -13.821202 3e-06 -0.50178 -31.181498 -4.027011 -9.445746 -60.62093 6.639678 -13.98271 -7.150196 -2.875042 13.772724 -8.40149 -3.21824 0.347732 -34.21154 0.771657 -0.963029 -17.733364 2.62102 0.0 -0.0 -0.0 -17.346413 -20.095211 -4.20178 21.757555 -1.638376 3.866428 2e-06 -6.338822 1e-06 -1.69759 -22.59174 -6.194003 -0.0 -4e-06 -2e-06 152.912262 -42.438709 10.733142 55.746349 -44.728779 -86.955132 108.795837 -0.1073 0.384887 -18.460859 23.644117 17.192743 22.182106 -20.375891 49.933323 -16.701811 -16.743525 28.476528 -2e-06 -12.690599 -0.0 15.752383 -17.877176 2.969516 -0.105919 -1.513856 -4.275879 -5.039039 -5.612868 -2.953556 4e-06 -11.02052 -3e-06 -6.111296 -15.89533 -3.84047 -0.0 -0.0 -2e-06 -10.283367 -5.680287 -4.341839 11.02829 -11.302402 -2.372634 -1.384268 -14.238574 -6.32012 -0.625436 -26.924177 -3.827603 -4.394685 -48.595257 -3.185714 -13.708522 -7.363474 -3.720939 18.141146 -14.052734 -3.242674 8e-06 -18.787266 -4e-06 -0.42971 -8.456041 2.555502 -1e-06 1e-06 0.0 -15.923532 -20.094482 -5.473585 30.419205 -7.190823 1.735924 3e-06 -8.162924 0.0 -1.861901 -22.86146 -6.167942 0.0 -3e-06 -1e-06 64.980103 -29.882036 13.34812 156.565323 -0.796264 0.875731 -37.749897 7.124894 13.832541 -9.61559 1.44237 2.804809 -1.0 1e-06 0.0 -103.414482 -24.690054 3.535233 152.685928 -1.110754 1.428297 -42.432747 10.726095 18.525808 -14.104832 0.95171 1.714833 -1.000004 0.0 -0.0 
0.0 0.0 0.0 0.0 -0.0 0.0 -0.557767 28.527081 -1.77014 86.048645 -63.555874 88.939148 20.739935 -1.643888 0.791209 -0.607625 -1.269465 2.062005 17.734161 -1.018198 0.20072 19.231306 2.086423 1.776504 -2.96575 -0.183903 -0.435009 -40.212364 8.12171 -2.471708 5e-06 0.0 -0.0 -0.169781 -0.283654 0.047552 -0.143395 -0.243379 0.106591 -0.264924 -0.332139 -0.011416 -35.83181 -61.047985 33.573601 31.523205 13.923121 -76.466187 77.701546 -1.066992 0.701675 -13.539455 17.229692 11.540292 17.636627 -26.322729 52.411182 -19.466658 -14.395598 29.410385 0.0 -8.774821 -2e-06 18.001616 -18.220768 6.243438 -0.609777 -1.795654 -3.889327 -4.807088 -11.046811 -2.93785 5e-06 -20.976015 0.0 -5.019972 -25.033562 -4.03188 6e-06 -0.0 -0.0 -10.634533 -5.68697 -3.565587 10.573272 -17.922953 -3.113901 2e-06 -13.821208 2e-06 -0.501778 -31.181505 -4.027014 -9.537931 -60.869553 6.722209 -13.982714 -7.150198 -2.875041 13.772731 -8.401495 -3.218241 0.347735 -34.211555 0.771655 -0.963028 -17.733372 2.62102 0.0 0.0 -1e-06 -17.346418 -20.095219 -4.201779 21.757559 -1.638376 3.866428 3e-06 -6.338823 1e-06 -1.69759 -22.591751 -6.194005 0.0 -4e-06 -2e-06 152.99881 -42.083633 10.754095 55.125771 -45.188652 -86.366196 108.638153 0.103215 0.570687 -18.179037 23.593773 16.768057 22.182121 -20.375898 49.933327 -16.701817 -16.743528 28.476534 -1e-06 -12.690603 0.0 15.784989 -17.869093 2.968674 -0.10592 -1.513856 -4.275881 -5.039042 -5.612872 -2.953556 4e-06 -11.020528 -3e-06 -6.111299 -15.895336 -3.840473 -1e-06 -1e-06 -1e-06 -10.283373 -5.680288 -4.341839 11.028296 -11.30241 -2.372635 -1.384269 -14.238582 -6.320123 -0.625439 -26.924191 -3.827603 -4.435152 -48.574154 -3.147059 -13.708527 -7.363478 -3.720941 18.141151 -14.05274 -3.242674 6e-06 -18.787271 -3e-06 -0.429709 -8.456043 2.555503 1e-06 -1e-06 -0.0 -15.923538 -20.094492 -5.473587 30.419218 -7.190825 1.735928 3e-06 -8.162927 -0.0 -1.861901 -22.861473 -6.167944 -0.0 -2e-06 -2e-06 65.11158 -29.977753 13.412076 156.593399 -0.738093 0.9282 -38.059345 7.299759 14.302879 -9.698125 1.421302 2.798106 -1.000002 1e-06 0.0 -103.216713 -24.951176 3.652399 152.633286 -1.043155 1.477153 -42.945301 10.507649 18.521894 -14.119185 0.962562 1.714126 -1.000005 -0.0 0.0 
0.0 0.0 0.0 0.0 -0.0 0.0 -0.467177 28.609663 -1.521968 85.953018 -63.650963 89.114624 20.632425 -1.574503 0.895097 -0.688638 -1.183373 2.167174 17.712496 -1.037483 0.189325 19.264681 2.065572 1.556805 -2.919885 -0.202745 -0.608497 -39.904762 8.10995 -2.622983 6e-06 -0.0 -0.0 -0.168043 -0.323788 0.05007 -0.150857 -0.281968 0.117195 -0.264504 -0.373069 -0.019755 -35.871086 -61.177185 33.662422 32.197105 14.228845 -76.50145 77.394814 -1.304365 0.798262 -13.426185 17.431761 11.164112 17.636633 -26.322737 52.411201 -19.46666 -14.395594 29.410385 -1e-06 -8.774821 -2e-06 18.054562 -18.347351 6.203746 -0.609777 -1.795654 -3.889328 -4.807087 -11.046816 -2.937851 4e-06 -20.976021 -1e-06 -5.01997 -25.033566 -4.031882 6e-06 1e-06 0.0 -10.634535 -5.686971 -3.565587 10.573274 -17.922956 -3.113901 2e-06 -13.821212 1e-06 -0.501777 -31.181519 -4.027017 -9.570353 -61.034641 6.717505 -13.982714 -7.150199 -2.875042 13.77273 -8.401495 -3.218241 0.347734 -34.211559 0.771654 -0.963028 -17.733376 2.621018 0.0 0.0 -0.0 -17.34642 -20.095224 -4.201783 21.757559 -1.638374 3.86643 2e-06 -6.338825 1e-06 -1.697589 -22.591751 -6.194008 -0.0 -5e-06 -2e-06 153.421478 -41.883263 10.662515 54.613777 -45.491611 -85.709129 108.230217 0.245551 0.681933 -17.528112 23.920465 16.902617 22.182121 -20.375898 49.933327 -16.701813 -16.743526 28.47653 -1e-06 -12.690601 -1e-06 15.779732 -17.817186 3.031327 -0.10592 -1.513856 -4.275881 -5.039041 -5.612872 -2.953556 4e-06 -11.020527 -1e-06 -6.111297 -15.895334 -3.840472 -1e-06 -0.0 1e-06 -10.28337 -5.680288 -4.341839 11.028295 -11.302407 -2.372634 -1.384267 -14.238577 -6.32012 -0.625437 -26.924189 -3.8276 -4.387505 -48.554127 -3.147252 -13.708524 -7.363477 -3.720939 18.141148 -14.05274 -3.242672 7e-06 -18.787273 -2e-06 -0.429711 -8.456047 2.555504 -1e-06 -1e-06 -0.0 -15.923534 -20.094482 -5.473587 30.41921 -7.190829 1.735927 3e-06 -8.162926 -0.0 -1.861902 -22.861473 -6.167942 0.0 -1e-06 -1e-06 65.840149 -30.048912 12.903019 156.418243 -0.713374 0.954262 -38.8382 7.308652 14.472954 -10.017071 1.440651 2.748221 -1.000002 1e-06 0.0 -102.776268 -25.165239 3.739473 152.328445 -1.021428 1.501074 -43.224129 10.704589 18.484743 -14.480909 0.945356 1.724244 -1.000004 -0.0 0.0 
0.0 0.0 0.0 0.0 -0.0 0.0 -0.359132 28.695906 -1.306847 85.793137 -63.802929 89.380142 20.425255 -1.516724 0.980391 -0.804189 -1.108426 2.233353 17.664175 -1.001267 0.157391 19.355394 1.976019 1.393893 -2.894955 -0.207302 -0.739209 -39.488373 8.076969 -2.694635 6e-06 -0.0 -0.0 -0.167575 -0.347844 0.048859 -0.193464 -0.292812 0.112017 -0.297216 -0.410042 -0.018511 -36.102188 -61.271626 33.944691 33.27623 14.53133 -76.215286 76.886711 -1.454902 0.74389 -13.15828 18.068087 11.141451 17.636625 -26.322735 52.411194 -19.466656 -14.395598 29.410393 -2e-06 -8.77482 -2e-06 18.015154 -18.458618 6.215434 -0.609777 -1.795653 -3.889327 -4.807087 -11.046811 -2.93785 3e-06 -20.976015 1e-06 -5.019969 -25.033554 -4.031879 6e-06 2e-06 0.0 -10.634533 -5.686968 -3.565587 10.573272 -17.922953 -3.1139 3e-06 -13.821206 2e-06 -0.501779 -31.181505 -4.027012 -9.585453 -61.170616 6.726144 -13.982712 -7.150195 -2.875042 13.772727 -8.401493 -3.218241 0.347733 -34.211544 0.771656 -0.96303 -17.733368 2.621021 -0.0 0.0 -0.0 -17.346413 -20.095213 -4.201782 21.757555 -1.638373 3.866427 1e-06 -6.338822 1e-06 -1.69759 -22.591742 -6.194005 -0.0 -4e-06 -2e-06 153.900757 -41.721581 10.514509 54.369965 -45.735004 -84.994598 107.602684 0.371022 0.841381 -16.766865 24.457918 17.349361 22.182108 -20.375891 49.933319 -16.701815 -16.743528 28.476534 -2e-06 -12.6906 1e-06 15.800224 -17.811146 3.090073 -0.105919 -1.513856 -4.275881 -5.03904 -5.612869 -2.953557 4e-06 -11.020525 -2e-06 -6.111296 -15.89533 -3.840471 -1e-06 -0.0 1e-06 -10.283369 -5.680287 -4.341839 11.028294 -11.302404 -2.372633 -1.384267 -14.238575 -6.320121 -0.625435 -26.924183 -3.827603 -4.329691 -48.626236 -3.185295 -13.708523 -7.363475 -3.720939 18.14115 -14.052739 -3.242677 6e-06 -18.787266 -2e-06 -0.42971 -8.456043 2.555503 0.0 -0.0 0.0 -15.923532 -20.094481 -5.473587 30.41921 -7.190827 1.735925 4e-06 -8.162922 0.0 -1.861899 -22.861465 -6.167942 1e-06 -3e-06 -1e-06 66.400421 -29.922234 12.358768 156.280197 -0.711999 0.955961 -39.642014 7.263356 14.508917 -10.571139 1.483302 2.672189 -1.0 -0.0 -0.0 -102.502609 -25.315971 3.765528 152.022369 -1.045531 1.500728 -43.304852 10.995515 18.324753 -14.867867 0.911732 1.743312 -1.000004 -0.0 -1e-06 
